<svg width="1280" height="643" xmlns="http://www.w3.org/2000/svg" xmlns:xlink="http://www.w3.org/1999/xlink" overflow="hidden"><defs><clipPath id="clip0"><rect x="0" y="0" width="1280" height="643"/></clipPath></defs><g clip-path="url(#clip0)"><rect x="0" y="0" width="1280" height="643.5" fill="#FFFFFF"/><path d="M361 143.345C361 126.634 374.536 113.088 391.233 113.088L488.767 113.088C505.464 113.088 519 126.634 519 143.345L519 175.903C519 192.614 505.464 206.16 488.767 206.16L391.233 206.16C374.536 206.16 361 192.614 361 175.903Z" stroke="#042433" stroke-width="2" stroke-miterlimit="8" fill="none" fill-rule="evenodd"/><text font-family="Aptos,Aptos_MSFontService,sans-serif" font-weight="400" font-size="36" transform="matrix(1 0 0 1.00078 381.028 150)">Regular</text><text font-family="Aptos,Aptos_MSFontService,sans-serif" font-weight="400" font-size="36" transform="matrix(1 0 0 1.00078 405.694 193)">Jobs</text><path d="M827 241.421C827 224.711 840.536 211.164 857.233 211.164L954.767 211.164C971.464 211.164 985 224.711 985 241.421L985 273.98C985 290.69 971.464 304.237 954.767 304.237L857.233 304.237C840.536 304.237 827 290.69 827 273.98Z" stroke="#042433" stroke-width="4" stroke-miterlimit="8" fill="#C2F1C8" fill-rule="evenodd"/><text font-family="Aptos,Aptos_MSFontService,sans-serif" font-weight="400" font-size="36" transform="matrix(1 0 0 1.00078 870.115 270)">Staff</text><path d="M574 241.421C574 224.711 587.536 211.164 604.233 211.164L700.767 211.164C717.464 211.164 731 224.711 731 241.421L731 273.98C731 290.69 717.464 304.237 700.767 304.237L604.233 304.237C587.536 304.237 574 290.69 574 273.98Z" stroke="#042433" stroke-width="4" stroke-miterlimit="8" fill="#C2F1C8" fill-rule="evenodd"/><text font-family="Aptos,Aptos_MSFontService,sans-serif" font-weight="400" font-size="36" transform="matrix(1 0 0 1.00078 618.026 270)">Jobs</text><path d="M518.444 197.257 561.181 218.464 560.293 220.257 517.556 199.051ZM561.319 215.181 566.71 222.324 557.766 222.354Z" fill="#156082"/><path d="M731 257.2 820.586 257.2 820.586 259.202 731 259.202ZM819.253 254.198 827.253 258.201 819.253 262.204Z" fill="#156082"/><path d="M1052.5 219.171C1052.5 215.578 1055.41 212.665 1059 212.665L1166 212.665C1169.59 212.665 1172.5 215.578 1172.5 219.171L1172.5 245.191C1172.5 248.783 1169.59 251.696 1166 251.696L1059 251.696C1055.41 251.696 1052.5 248.783 1052.5 245.191Z" stroke="#FF0000" stroke-linejoin="round" stroke-miterlimit="10" fill="none" fill-rule="evenodd"/><text font-family="Aptos,Aptos_MSFontService,sans-serif" font-weight="400" font-size="21" transform="matrix(1 0 0 1.00078 1093.78 239)">App</text><path d="M1052.5 266.207C1052.5 262.614 1055.41 259.702 1059 259.702L1166 259.702C1169.59 259.702 1172.5 262.614 1172.5 266.207L1172.5 292.227C1172.5 295.82 1169.59 298.732 1166 298.732L1059 298.732C1055.41 298.732 1052.5 295.82 1052.5 292.227Z" stroke="#FF0000" stroke-linejoin="round" stroke-miterlimit="10" fill="none" fill-rule="evenodd"/><text font-family="Aptos,Aptos_MSFontService,sans-serif" font-weight="400" font-size="21" transform="matrix(1 0 0 1.00078 1091.45 286)">SMS</text><path d="M985.008 230.179 1045.81 230.696 1045.79 232.698 984.992 232.181ZM1044.5 227.683 1052.47 231.754 1044.43 235.689Z" fill="#156082"/><path d="M985.008 277.216 1045.81 277.733 1045.79 279.734 984.992 279.217ZM1044.5 274.719 1052.47 278.79 1044.43 282.725Z" fill="#156082"/><path d="M133 242.422C133 225.711 146.536 212.165 163.233 212.165L270.767 212.165C287.464 212.165 301 225.711 301 242.422L301 274.98C301 291.691 287.464 305.237 270.767 305.237L163.233 305.237C146.536 305.237 133 291.691 133 274.98Z" stroke="#042433" stroke-width="4" stroke-miterlimit="8" fill="#C2F1C8" fill-rule="evenodd"/><text font-family="Aptos,Aptos_MSFontService,sans-serif" font-weight="400" font-size="36" transform="matrix(1 0 0 1.00078 154.145 271)">Patients</text><path d="M0.498115-0.867111 58.2259 32.2949 57.2297 34.0291-0.498115 0.867111ZM58.5641 29.0294 63.5086 36.4827 54.5792 35.9663Z" fill="#156082" transform="matrix(1 0 0 -1.00078 298 227.66)"/><text fill="#4EA72E" font-family="Aptos,Aptos_MSFontService,sans-serif" font-weight="400" font-size="21" transform="matrix(1 0 0 1.00078 558.228 176)">Daily</text><text fill="#4EA72E" font-family="Aptos,Aptos_MSFontService,sans-serif" font-weight="400" font-size="21" transform="matrix(1 0 0 1.00078 544.388 201)">Process</text><path d="M0.00496692-0.999988 266.005 0.32123 265.995 2.32121-0.00496692 0.999988ZM264.686-2.68536 272.666 1.35433 264.647 5.31455Z" fill="#156082" transform="matrix(1 0 0 -1.00078 301 259.556)"/><path d="M568 51.2732C568 34.5628 581.536 21.0163 598.233 21.0163L694.767 21.0163C711.464 21.0163 725 34.5628 725 51.2732L725 83.8318C725 100.542 711.464 114.089 694.767 114.089L598.233 114.089C581.536 114.089 568 100.542 568 83.8318Z" stroke="#042433" stroke-width="2" stroke-miterlimit="8" fill="none" fill-rule="evenodd"/><text font-family="Aptos,Aptos_MSFontService,sans-serif" font-weight="400" font-size="36" transform="matrix(1 0 0 1.00078 596.219 79)">Roster</text><path d="M0.506271-0.862374 48.8832 27.5381 47.8707 29.2629-0.506271 0.862374ZM49.2522 24.276 54.1261 31.7756 45.202 31.175Z" fill="#156082" transform="matrix(1 0 0 -1.00078 518 129.877)"/><path d="M832.682 213.276 725.129 110.415 726.511 108.968 834.064 211.829ZM724.02 113.507 721 105.082 729.547 107.719Z" fill="#156082"/><path d="M551 367.519C551 350.809 564.536 337.262 581.233 337.262L723.767 337.262C740.464 337.262 754 350.809 754 367.519L754 400.078C754 416.788 740.464 430.335 723.767 430.335L581.233 430.335C564.536 430.335 551 416.788 551 400.078Z" stroke="#042433" stroke-width="2" stroke-miterlimit="8" fill="none" fill-rule="evenodd"/><text font-family="Aptos,Aptos_MSFontService,sans-serif" font-weight="400" font-size="36" transform="matrix(1 0 0 1.00078 588.619 396)">Invoices</text><path d="M653 304.237 653 330.653 651 330.653 651 304.237ZM656 329.319 652 337.325 648 329.319Z" fill="#156082"/><text fill="#4EA72E" font-family="Aptos,Aptos_MSFontService,sans-serif" font-weight="400" font-size="21" transform="matrix(1 0 0 1.00078 148.504 162)">Bulk</text><text fill="#4EA72E" font-family="Aptos,Aptos_MSFontService,sans-serif" font-weight="400" font-size="21" transform="matrix(1 0 0 1.00078 135.337 187)">Upload</text><path d="M1-2.29368e-06 1.00009 39.1055-0.99991 39.1055-1 2.29368e-06ZM4.00009 37.7722 0.000104987 45.7722-3.99991 37.7722Z" fill="#156082" transform="matrix(-1 0 0 1.00078 217 167.13)"/><text fill="#4EA72E" font-family="Aptos,Aptos_MSFontService,sans-serif" font-weight="400" font-size="21" transform="matrix(1 0 0 1.00078 330.036 52)">User</text><text fill="#4EA72E" font-family="Aptos,Aptos_MSFontService,sans-serif" font-weight="400" font-size="21" transform="matrix(1 0 0 1.00078 316.689 77)">defined</text><text fill="#4EA72E" font-family="Aptos,Aptos_MSFontService,sans-serif" font-weight="400" font-size="21" transform="matrix(1 0 0 1.00078 332.109 103)">jobs</text><path d="M309.44 103.182 352.357 124.242 351.476 126.04 308.56 104.979ZM352.48 120.959 357.902 128.078 348.958 128.148Z" fill="#156082"/><text fill="#4EA72E" font-family="Aptos,Aptos_MSFontService,sans-serif" font-weight="400" font-size="21" transform="matrix(1 0 0 1.00078 149.689 343)">User</text><text fill="#4EA72E" font-family="Aptos,Aptos_MSFontService,sans-serif" font-weight="400" font-size="21" transform="matrix(1 0 0 1.00078 136.343 368)">defined</text><text fill="#4EA72E" font-family="Aptos,Aptos_MSFontService,sans-serif" font-weight="400" font-size="21" transform="matrix(1 0 0 1.00078 123.803 394)">info. types</text><path d="M216 350.436 216 311.909 218 311.909 218 350.436ZM213 313.244 217 305.237 221 313.244Z" fill="#156082"/><text fill="#4EA72E" font-family="Aptos,Aptos_MSFontService,sans-serif" font-weight="400" font-size="21" transform="matrix(1 0 0 1.00078 953.39 136)">User</text><text fill="#4EA72E" font-family="Aptos,Aptos_MSFontService,sans-serif" font-weight="400" font-size="21" transform="matrix(1 0 0 1.00078 940.043 161)">defined</text><text fill="#4EA72E" font-family="Aptos,Aptos_MSFontService,sans-serif" font-weight="400" font-size="21" transform="matrix(1 0 0 1.00078 927.503 187)">info. types</text><path d="M907 174.135 907 204.932 905 204.932 905 174.135ZM910 203.598 906 211.604 902 203.598Z" fill="#156082"/><text fill="#4EA72E" font-family="Aptos,Aptos_MSFontService,sans-serif" font-weight="400" font-size="21" transform="matrix(1 0 0 1.00078 940.975 335)">Levels of</text><text fill="#4EA72E" font-family="Aptos,Aptos_MSFontService,sans-serif" font-weight="400" font-size="21" transform="matrix(1 0 0 1.00078 930.121 360)">Permission</text><path d="M1-2.32459e-06 1.00009 38.4969-0.99991 38.4969-1 2.32459e-06ZM4.00009 37.1636 0.000104987 45.1636-3.99991 37.1636Z" fill="#156082" transform="matrix(1 0 0 -1.00078 909 349.435)"/><text fill="#4EA72E" font-family="Aptos,Aptos_MSFontService,sans-serif" font-weight="400" font-size="21" transform="matrix(1 0 0 1.00078 729.826 31)">Projected</text><text fill="#4EA72E" font-family="Aptos,Aptos_MSFontService,sans-serif" font-weight="400" font-size="21" transform="matrix(1 0 0 1.00078 739.693 56)">work vs</text><text fill="#4EA72E" font-family="Aptos,Aptos_MSFontService,sans-serif" font-weight="400" font-size="21" transform="matrix(1 0 0 1.00078 753.466 82)">staff</text><text fill="#4EA72E" font-family="Aptos,Aptos_MSFontService,sans-serif" font-weight="400" font-size="21" transform="matrix(1 0 0 1.00078 733.925 286)">Allocated</text></g></svg>